<svg xmlns="http://www.w3.org/2000/svg" width="48" height="48" viewBox="0 0 48 48"><path fill="currentColor" fill-rule="evenodd" d="M24 2a2 2 0 0 1 2 2v4.907c2.251.179 4.417.657 6.454 1.394l2.518-4.354a2.004 2.004 0 0 1 2.734-.733a1.996 1.996 0 0 1 .732 2.73l-2.33 4.03a24.2 24.2 0 0 1 4.805 3.542l3.144-3.14a2.004 2.004 0 0 1 2.831-.002c.782.78.783 2.045.001 2.826l-3.311 3.307a23.1 23.1 0 0 1 3.716 7.44a5.25 5.25 0 0 1 0 2.918C44.438 38.785 35.06 46 23.999 46C12.944 46 3.571 38.794.707 28.882a5.27 5.27 0 0 1-.001-2.919a23.1 23.1 0 0 1 3.709-7.44l-3.309-3.324a1.996 1.996 0 0 1 .009-2.826a2.004 2.004 0 0 1 2.83.009l3.133 3.146a24.2 24.2 0 0 1 4.802-3.544L9.559 7.937a1.996 1.996 0 0 1 .742-2.728a2.004 2.004 0 0 1 2.731.743l2.498 4.357A24.7 24.7 0 0 1 22 8.907V4a2 2 0 0 1 2-2m0 10.83q-.036 0-.071-.002c-2.938.01-5.723.624-8.232 1.718l-.032.019a2 2 0 0 1-.391.171a20.2 20.2 0 0 0-6.603 4.895q-.06.075-.13.146a19.2 19.2 0 0 0-3.992 7.294a1.26 1.26 0 0 0 0 .7C6.912 35.944 14.695 42 24 42c9.309 0 17.096-6.065 19.452-14.242a1.26 1.26 0 0 0 0-.702a19.2 19.2 0 0 0-3.93-7.211a2 2 0 0 1-.274-.312a20.2 20.2 0 0 0-6.627-4.848a2 2 0 0 1-.246-.11A20.7 20.7 0 0 0 24 12.83M13.225 27.413c0-5.943 4.825-10.757 10.773-10.757s10.774 4.814 10.774 10.757s-4.825 10.756-10.774 10.756s-10.773-4.814-10.773-10.756" clip-rule="evenodd"/></svg>